<svg width="232" height="68" viewBox="0 0 232 68" fill="none" xmlns="http://www.w3.org/2000/svg">
<g filter="url(#filter0_f)">
<line x1="225" y1="61.5" x2="68" y2="61.5" stroke="#CFECF9" stroke-width="5"/>
</g>
<path d="M97.576 42.648C97.784 42.648 97.944 42.744 98.056 42.936C98.184 43.128 98.248 43.392 98.248 43.728C98.248 44.352 98.096 44.848 97.792 45.216C96.896 46.288 96.024 47.04 95.176 47.472C94.344 47.904 93.336 48.12 92.152 48.12C91.32 48.12 90.552 48.016 89.848 47.808C89.144 47.6 88.288 47.288 87.28 46.872C86.368 46.472 85.488 46.144 84.64 45.888C83.824 47.376 82.6 48.12 80.968 48.12C80.072 48.12 79.36 47.92 78.832 47.52C78.288 47.104 78.016 46.576 78.016 45.936C78.016 45.152 78.392 44.504 79.144 43.992C79.896 43.464 80.896 43.2 82.144 43.2H82.456L82.888 36.216C82.984 34.616 83.272 33.296 83.752 32.256C84.232 31.216 84.896 30.328 85.744 29.592C86.48 28.952 87.32 28.472 88.264 28.152C89.208 27.816 90.208 27.648 91.264 27.648C92.992 27.648 94.32 28.096 95.248 28.992C96.176 29.888 96.64 31.056 96.64 32.496C96.64 33.472 96.464 34.264 96.112 34.872C95.76 35.464 95.272 35.76 94.648 35.76C94.2 35.76 93.848 35.656 93.592 35.448C93.336 35.224 93.208 34.912 93.208 34.512C93.208 34.368 93.24 34.104 93.304 33.72C93.4 33.272 93.448 32.872 93.448 32.52C93.448 31.848 93.248 31.32 92.848 30.936C92.464 30.536 91.872 30.336 91.072 30.336C89.664 30.336 88.576 30.8 87.808 31.728C87.04 32.64 86.552 34.08 86.344 36.048L85.792 41.496C85.712 42.264 85.608 42.928 85.48 43.488C86.504 43.664 87.784 43.944 89.32 44.328C90.216 44.552 90.904 44.712 91.384 44.808C91.864 44.904 92.288 44.952 92.656 44.952C93.584 44.952 94.376 44.8 95.032 44.496C95.704 44.176 96.336 43.672 96.928 42.984C97.12 42.76 97.336 42.648 97.576 42.648ZM108.926 42.648C109.134 42.648 109.294 42.744 109.406 42.936C109.534 43.128 109.598 43.392 109.598 43.728C109.598 44.368 109.446 44.864 109.142 45.216C108.55 45.936 107.71 46.6 106.622 47.208C105.55 47.816 104.398 48.12 103.166 48.12C101.486 48.12 100.182 47.664 99.2543 46.752C98.3263 45.84 97.8623 44.592 97.8623 43.008C97.8623 41.904 98.0943 40.88 98.5583 39.936C99.0223 38.976 99.6623 38.216 100.478 37.656C101.31 37.096 102.246 36.816 103.286 36.816C104.214 36.816 104.958 37.096 105.518 37.656C106.078 38.2 106.358 38.944 106.358 39.888C106.358 40.992 105.958 41.944 105.158 42.744C104.374 43.528 103.038 44.152 101.15 44.616C101.55 45.352 102.31 45.72 103.43 45.72C104.15 45.72 104.966 45.472 105.878 44.976C106.806 44.464 107.606 43.8 108.278 42.984C108.47 42.76 108.686 42.648 108.926 42.648ZM102.878 39.168C102.286 39.168 101.782 39.512 101.366 40.2C100.966 40.888 100.766 41.72 100.766 42.696V42.744C101.71 42.52 102.454 42.184 102.998 41.736C103.542 41.288 103.814 40.768 103.814 40.176C103.814 39.872 103.726 39.632 103.55 39.456C103.39 39.264 103.166 39.168 102.878 39.168ZM120.412 40.632C120.62 40.632 120.78 40.736 120.892 40.944C121.004 41.152 121.06 41.416 121.06 41.736C121.06 42.136 121.004 42.448 120.892 42.672C120.78 42.88 120.604 43.024 120.364 43.104C119.404 43.44 118.348 43.632 117.196 43.68C116.876 45.008 116.268 46.08 115.372 46.896C114.492 47.712 113.516 48.12 112.444 48.12C110.828 48.12 109.652 47.504 108.916 46.272C108.18 45.04 107.812 43.256 107.812 40.92C107.812 38.856 108.068 36.616 108.58 34.2C109.092 31.768 109.836 29.704 110.812 28.008C111.804 26.296 112.98 25.44 114.34 25.44C115.076 25.44 115.668 25.76 116.116 26.4C116.564 27.024 116.788 27.84 116.788 28.848C116.788 30.16 116.54 31.464 116.044 32.76C115.548 34.056 114.724 35.416 113.572 36.84C114.644 36.92 115.516 37.368 116.188 38.184C116.86 38.984 117.26 39.976 117.388 41.16C118.14 41.112 119.036 40.952 120.076 40.68C120.172 40.648 120.284 40.632 120.412 40.632ZM113.788 27.816C113.468 27.816 113.116 28.296 112.732 29.256C112.364 30.2 112.02 31.488 111.7 33.12C111.38 34.752 111.14 36.536 110.98 38.472C112.036 36.536 112.876 34.832 113.5 33.36C114.14 31.872 114.46 30.552 114.46 29.4C114.46 28.888 114.396 28.496 114.268 28.224C114.156 27.952 113.996 27.816 113.788 27.816ZM112.54 45.576C113.036 45.576 113.476 45.368 113.86 44.952C114.244 44.536 114.5 43.936 114.628 43.152C114.132 42.816 113.748 42.376 113.476 41.832C113.22 41.288 113.092 40.712 113.092 40.104C113.092 39.88 113.124 39.576 113.188 39.192H113.116C112.46 39.192 111.908 39.52 111.46 40.176C111.028 40.816 110.812 41.68 110.812 42.768C110.812 43.68 110.98 44.376 111.316 44.856C111.668 45.336 112.076 45.576 112.54 45.576ZM121.748 48.12C120.836 48.12 120.092 47.76 119.516 47.04C118.956 46.32 118.676 45.376 118.676 44.208C118.676 42.928 118.972 41.72 119.564 40.584C120.156 39.432 120.94 38.512 121.916 37.824C122.908 37.12 123.956 36.768 125.06 36.768C125.412 36.768 125.644 36.84 125.756 36.984C125.884 37.112 125.988 37.352 126.068 37.704C126.372 37.64 126.708 37.608 127.076 37.608C127.46 37.608 127.756 37.704 127.964 37.896C128.172 38.088 128.276 38.36 128.276 38.712C128.276 39.08 128.196 39.72 128.036 40.632C127.86 41.608 127.724 42.544 127.628 43.44C127.532 44.32 127.484 45.312 127.484 46.416C127.484 47.024 127.356 47.464 127.1 47.736C126.86 47.992 126.46 48.12 125.9 48.12C125.356 48.12 124.948 47.992 124.676 47.736C124.42 47.464 124.292 47.032 124.292 46.44L124.316 46.056C123.82 47.432 122.964 48.12 121.748 48.12ZM122.684 45.696C123.132 45.696 123.54 45.384 123.908 44.76C124.276 44.136 124.604 43.024 124.892 41.424L125.348 39C124.692 39.016 124.084 39.272 123.524 39.768C122.964 40.248 122.516 40.888 122.18 41.688C121.844 42.488 121.676 43.336 121.676 44.232C121.676 44.712 121.764 45.08 121.94 45.336C122.132 45.576 122.38 45.696 122.684 45.696ZM132.458 33.72C132.106 33.72 131.826 33.64 131.618 33.48C131.41 33.32 131.306 33.064 131.306 32.712C131.306 32.568 131.33 32.4 131.378 32.208C131.554 31.472 131.682 30.792 131.762 30.168C131.858 29.544 131.906 28.848 131.906 28.08C131.906 27.28 132.09 26.664 132.458 26.232C132.842 25.8 133.33 25.584 133.922 25.584C134.498 25.584 134.93 25.744 135.218 26.064C135.522 26.368 135.674 26.784 135.674 27.312C135.674 27.872 135.506 28.616 135.17 29.544C134.834 30.472 134.426 31.376 133.946 32.256C133.626 32.848 133.37 33.24 133.178 33.432C133.002 33.624 132.762 33.72 132.458 33.72ZM139.882 48.648C139.05 48.648 138.41 48.456 137.962 48.072C137.53 47.688 137.314 47.256 137.314 46.776C137.314 46.36 137.466 46 137.77 45.696C138.074 45.392 138.522 45.24 139.114 45.24C139.322 45.24 139.562 45.264 139.834 45.312C140.122 45.344 140.338 45.368 140.482 45.384C140.466 44.968 140.37 44.576 140.194 44.208C140.034 43.84 139.826 43.488 139.57 43.152C139.314 42.8 139.074 42.496 138.85 42.24C138.354 43.184 137.858 43.968 137.362 44.592C136.882 45.216 136.354 45.808 135.778 46.368C135.49 46.656 135.186 46.8 134.866 46.8C134.61 46.8 134.402 46.712 134.242 46.536C134.082 46.344 134.002 46.112 134.002 45.84C134.002 45.52 134.114 45.224 134.338 44.952L134.65 44.568C135.53 43.48 136.194 42.584 136.642 41.88C136.93 41.416 137.218 40.864 137.506 40.224C137.81 39.584 138.202 38.712 138.682 37.608C138.986 36.904 139.618 36.552 140.578 36.552C141.026 36.552 141.338 36.592 141.514 36.672C141.69 36.752 141.778 36.88 141.778 37.056C141.778 37.152 141.746 37.304 141.682 37.512C141.618 37.72 141.53 37.928 141.418 38.136C141.13 38.712 140.986 39.2 140.986 39.6C140.986 39.84 141.066 40.104 141.226 40.392C141.402 40.68 141.666 41.04 142.018 41.472C142.53 42.144 142.914 42.72 143.17 43.2C143.442 43.664 143.578 44.176 143.578 44.736C143.578 45.408 143.418 46.048 143.098 46.656C142.794 47.248 142.362 47.728 141.802 48.096C141.242 48.464 140.602 48.648 139.882 48.648ZM163.983 40.632C164.191 40.632 164.351 40.736 164.463 40.944C164.575 41.152 164.631 41.416 164.631 41.736C164.631 42.136 164.575 42.448 164.463 42.672C164.351 42.88 164.175 43.024 163.935 43.104C162.975 43.44 161.919 43.632 160.767 43.68C160.447 45.008 159.839 46.08 158.943 46.896C158.063 47.712 157.087 48.12 156.015 48.12C154.399 48.12 153.223 47.504 152.487 46.272C151.751 45.04 151.383 43.256 151.383 40.92C151.383 38.856 151.639 36.616 152.151 34.2C152.663 31.768 153.407 29.704 154.383 28.008C155.375 26.296 156.551 25.44 157.911 25.44C158.647 25.44 159.239 25.76 159.687 26.4C160.135 27.024 160.359 27.84 160.359 28.848C160.359 30.16 160.111 31.464 159.615 32.76C159.119 34.056 158.295 35.416 157.143 36.84C158.215 36.92 159.087 37.368 159.759 38.184C160.431 38.984 160.831 39.976 160.959 41.16C161.711 41.112 162.607 40.952 163.647 40.68C163.743 40.648 163.855 40.632 163.983 40.632ZM157.359 27.816C157.039 27.816 156.687 28.296 156.303 29.256C155.935 30.2 155.591 31.488 155.271 33.12C154.951 34.752 154.711 36.536 154.551 38.472C155.607 36.536 156.447 34.832 157.071 33.36C157.711 31.872 158.031 30.552 158.031 29.4C158.031 28.888 157.967 28.496 157.839 28.224C157.727 27.952 157.567 27.816 157.359 27.816ZM156.111 45.576C156.607 45.576 157.047 45.368 157.431 44.952C157.815 44.536 158.071 43.936 158.199 43.152C157.703 42.816 157.319 42.376 157.047 41.832C156.791 41.288 156.663 40.712 156.663 40.104C156.663 39.88 156.695 39.576 156.759 39.192H156.687C156.031 39.192 155.479 39.52 155.031 40.176C154.599 40.816 154.383 41.68 154.383 42.768C154.383 43.68 154.551 44.376 154.887 44.856C155.239 45.336 155.647 45.576 156.111 45.576ZM164.262 48.12C163.654 48.12 163.222 47.8 162.966 47.16C162.726 46.52 162.606 45.496 162.606 44.088C162.606 42.008 162.902 40.032 163.494 38.16C163.638 37.696 163.87 37.36 164.19 37.152C164.526 36.928 164.99 36.816 165.582 36.816C165.902 36.816 166.126 36.856 166.254 36.936C166.382 37.016 166.446 37.168 166.446 37.392C166.446 37.648 166.326 38.224 166.086 39.12C165.926 39.76 165.798 40.32 165.702 40.8C165.606 41.28 165.526 41.872 165.462 42.576C165.99 41.2 166.582 40.08 167.238 39.216C167.894 38.352 168.534 37.736 169.158 37.368C169.798 37 170.382 36.816 170.91 36.816C171.95 36.816 172.47 37.336 172.47 38.376C172.47 38.584 172.398 39.088 172.254 39.888C172.126 40.528 172.062 40.928 172.062 41.088C172.062 41.648 172.262 41.928 172.662 41.928C173.11 41.928 173.686 41.576 174.39 40.872C174.598 40.664 174.814 40.56 175.038 40.56C175.246 40.56 175.406 40.656 175.518 40.848C175.646 41.024 175.71 41.264 175.71 41.568C175.71 42.16 175.55 42.624 175.23 42.96C174.782 43.424 174.254 43.824 173.646 44.16C173.054 44.48 172.422 44.64 171.75 44.64C170.902 44.64 170.254 44.424 169.806 43.992C169.374 43.56 169.158 42.976 169.158 42.24C169.158 42 169.182 41.76 169.23 41.52C169.262 41.2 169.278 40.984 169.278 40.872C169.278 40.616 169.19 40.488 169.014 40.488C168.774 40.488 168.454 40.76 168.054 41.304C167.67 41.832 167.286 42.536 166.902 43.416C166.518 44.296 166.206 45.224 165.966 46.2C165.79 46.952 165.582 47.464 165.342 47.736C165.118 47.992 164.758 48.12 164.262 48.12ZM176.624 35.232C175.952 35.232 175.448 35.08 175.112 34.776C174.776 34.456 174.608 34.016 174.608 33.456C174.608 32.896 174.824 32.432 175.256 32.064C175.704 31.68 176.256 31.488 176.912 31.488C177.504 31.488 177.984 31.632 178.352 31.92C178.72 32.208 178.904 32.616 178.904 33.144C178.904 33.784 178.696 34.296 178.28 34.68C177.864 35.048 177.312 35.232 176.624 35.232ZM176.432 48.12C175.392 48.12 174.632 47.752 174.152 47.016C173.688 46.28 173.456 45.304 173.456 44.088C173.456 43.368 173.544 42.448 173.72 41.328C173.912 40.192 174.152 39.136 174.44 38.16C174.584 37.648 174.776 37.296 175.016 37.104C175.256 36.912 175.64 36.816 176.168 36.816C176.984 36.816 177.392 37.088 177.392 37.632C177.392 38.032 177.24 38.96 176.936 40.416C176.552 42.176 176.36 43.368 176.36 43.992C176.36 44.472 176.424 44.84 176.552 45.096C176.68 45.352 176.896 45.48 177.2 45.48C177.488 45.48 177.848 45.28 178.28 44.88C178.712 44.48 179.288 43.848 180.008 42.984C180.2 42.76 180.416 42.648 180.656 42.648C180.864 42.648 181.024 42.744 181.136 42.936C181.264 43.128 181.328 43.392 181.328 43.728C181.328 44.368 181.176 44.864 180.872 45.216C179.288 47.152 177.808 48.12 176.432 48.12ZM183.97 48.12C182.402 48.12 181.178 47.68 180.298 46.8C179.434 45.904 179.002 44.728 179.002 43.272C179.002 41.976 179.258 40.84 179.77 39.864C180.282 38.888 180.946 38.136 181.762 37.608C182.578 37.08 183.434 36.816 184.33 36.816C185.21 36.816 185.89 37.08 186.37 37.608C186.866 38.12 187.114 38.784 187.114 39.6C187.114 40.272 186.962 40.84 186.658 41.304C186.37 41.768 185.986 42 185.506 42C185.202 42 184.954 41.928 184.762 41.784C184.586 41.64 184.498 41.44 184.498 41.184C184.498 41.072 184.514 40.944 184.546 40.8C184.578 40.656 184.602 40.552 184.618 40.488C184.698 40.248 184.738 40.024 184.738 39.816C184.738 39.608 184.682 39.448 184.57 39.336C184.474 39.224 184.33 39.168 184.138 39.168C183.77 39.168 183.426 39.336 183.106 39.672C182.786 39.992 182.53 40.432 182.338 40.992C182.146 41.552 182.05 42.168 182.05 42.84C182.05 44.696 182.858 45.624 184.474 45.624C185.13 45.624 185.834 45.408 186.586 44.976C187.354 44.528 188.106 43.864 188.842 42.984C189.034 42.76 189.25 42.648 189.49 42.648C189.698 42.648 189.858 42.744 189.97 42.936C190.098 43.128 190.162 43.392 190.162 43.728C190.162 44.336 190.01 44.832 189.706 45.216C188.954 46.144 188.05 46.864 186.994 47.376C185.954 47.872 184.946 48.12 183.97 48.12ZM202.094 42.648C202.302 42.648 202.462 42.744 202.574 42.936C202.702 43.128 202.766 43.392 202.766 43.728C202.766 44.368 202.614 44.864 202.31 45.216C201.59 46.096 200.862 46.8 200.126 47.328C199.39 47.856 198.518 48.12 197.51 48.12C196.278 48.12 195.286 47.768 194.534 47.064C193.782 46.36 193.406 45.424 193.406 44.256C193.406 43.632 193.726 43.184 194.366 42.912C195.07 42.608 195.574 42.288 195.878 41.952C196.182 41.6 196.334 41.176 196.334 40.68C196.334 40.392 196.27 40.176 196.142 40.032C196.03 39.888 195.886 39.816 195.71 39.816C195.278 39.816 194.798 40.128 194.27 40.752C193.758 41.376 193.278 42.184 192.83 43.176C192.382 44.152 192.03 45.16 191.774 46.2C191.598 46.952 191.39 47.464 191.15 47.736C190.926 47.992 190.566 48.12 190.07 48.12C189.574 48.12 189.206 47.944 188.966 47.592C188.742 47.224 188.59 46.664 188.51 45.912C188.43 45.16 188.39 44.056 188.39 42.6C188.39 40.136 188.638 37.568 189.134 34.896C189.646 32.224 190.39 29.984 191.366 28.176C192.358 26.352 193.542 25.44 194.918 25.44C195.654 25.44 196.246 25.76 196.694 26.4C197.158 27.024 197.39 27.84 197.39 28.848C197.39 30.464 196.918 32.144 195.974 33.888C195.03 35.616 193.494 37.64 191.366 39.96C191.318 40.792 191.294 41.648 191.294 42.528C192.062 40.528 192.942 39.08 193.934 38.184C194.926 37.272 195.854 36.816 196.718 36.816C197.518 36.816 198.158 37.088 198.638 37.632C199.134 38.176 199.382 38.848 199.382 39.648C199.382 40.528 199.158 41.336 198.71 42.072C198.262 42.808 197.494 43.464 196.406 44.04C196.47 44.472 196.662 44.824 196.982 45.096C197.318 45.352 197.718 45.48 198.182 45.48C198.678 45.48 199.158 45.288 199.622 44.904C200.086 44.52 200.694 43.88 201.446 42.984C201.638 42.76 201.854 42.648 202.094 42.648ZM194.414 27.816C194.126 27.816 193.806 28.232 193.454 29.064C193.102 29.88 192.758 30.992 192.422 32.4C192.102 33.792 191.838 35.312 191.63 36.96C192.622 35.792 193.438 34.52 194.078 33.144C194.734 31.768 195.062 30.52 195.062 29.4C195.062 28.888 195.006 28.496 194.894 28.224C194.782 27.952 194.622 27.816 194.414 27.816ZM205.296 48.648C204.464 48.648 203.824 48.456 203.376 48.072C202.944 47.688 202.728 47.256 202.728 46.776C202.728 46.36 202.88 46 203.184 45.696C203.488 45.392 203.936 45.24 204.528 45.24C204.736 45.24 204.976 45.264 205.248 45.312C205.536 45.344 205.752 45.368 205.896 45.384C205.88 44.968 205.784 44.576 205.608 44.208C205.448 43.84 205.24 43.488 204.984 43.152C204.728 42.8 204.488 42.496 204.264 42.24C203.768 43.184 203.272 43.968 202.776 44.592C202.296 45.216 201.768 45.808 201.192 46.368C200.904 46.656 200.6 46.8 200.28 46.8C200.024 46.8 199.816 46.712 199.656 46.536C199.496 46.344 199.416 46.112 199.416 45.84C199.416 45.52 199.528 45.224 199.752 44.952L200.064 44.568C200.944 43.48 201.608 42.584 202.056 41.88C202.344 41.416 202.632 40.864 202.92 40.224C203.224 39.584 203.616 38.712 204.096 37.608C204.4 36.904 205.032 36.552 205.992 36.552C206.44 36.552 206.752 36.592 206.928 36.672C207.104 36.752 207.192 36.88 207.192 37.056C207.192 37.152 207.16 37.304 207.096 37.512C207.032 37.72 206.944 37.928 206.832 38.136C206.544 38.712 206.4 39.2 206.4 39.6C206.4 39.84 206.48 40.104 206.64 40.392C206.816 40.68 207.08 41.04 207.432 41.472C207.944 42.144 208.328 42.72 208.584 43.2C208.856 43.664 208.992 44.176 208.992 44.736C208.992 45.408 208.832 46.048 208.512 46.656C208.208 47.248 207.776 47.728 207.216 48.096C206.656 48.464 206.016 48.648 205.296 48.648Z" fill="#FFFCFC"/>
<g filter="url(#filter1_f)">
<circle cx="31.5" cy="31.5" r="27.5" fill="#BFF2F9" fill-opacity="0.93"/>
</g>
<defs>
<filter id="filter0_f" x="64" y="55" width="165" height="13" filterUnits="userSpaceOnUse" color-interpolation-filters="sRGB">
<feFlood flood-opacity="0" result="BackgroundImageFix"/>
<feBlend mode="normal" in="SourceGraphic" in2="BackgroundImageFix" result="shape"/>
<feGaussianBlur stdDeviation="2" result="effect1_foregroundBlur"/>
</filter>
<filter id="filter1_f" x="0" y="0" width="63" height="63" filterUnits="userSpaceOnUse" color-interpolation-filters="sRGB">
<feFlood flood-opacity="0" result="BackgroundImageFix"/>
<feBlend mode="normal" in="SourceGraphic" in2="BackgroundImageFix" result="shape"/>
<feGaussianBlur stdDeviation="2" result="effect1_foregroundBlur"/>
</filter>
</defs>
</svg>
