<svg width="189" height="120" viewBox="0 0 189 120" fill="none" xmlns="http://www.w3.org/2000/svg">
<ellipse cx="62" cy="59.5" rx="62" ry="59.5" fill="url(#paint0_linear)"/>
<ellipse cx="62" cy="59.5" rx="62" ry="59.5" fill="url(#paint1_linear)"/>
<line x1="63.5" y1="1.00455" x2="62.4273" y2="119.004" stroke="#FAFFFB"/>
<path d="M70.7646 65.048C69.1646 65.048 67.9566 64.776 67.1406 64.232C66.3246 63.672 65.9166 62.664 65.9166 61.208C66.2366 53.208 66.7486 49.392 67.4526 49.76C67.8046 49.776 67.9806 50.32 67.9806 51.392C67.9806 52.048 67.8686 53.432 67.6446 55.544C67.3566 57.976 67.2126 59.76 67.2126 60.896L67.2366 61.592C67.2366 61.944 67.3406 62.296 67.5486 62.648C67.7726 63 68.0526 63.192 68.3886 63.224L73.0926 63.632C73.2686 63.648 73.3566 63.816 73.3566 64.136C73.3566 64.424 73.2846 64.624 73.1406 64.736C73.0126 64.848 72.7806 64.936 72.4446 65L70.7646 65.048ZM79.9834 65C78.9594 65 78.0154 64.8 77.1514 64.4C76.2874 64 75.5994 63.432 75.0874 62.696C74.5754 61.96 74.3194 61.112 74.3194 60.152C74.3194 59.08 74.5194 58.08 74.9194 57.152C75.3194 56.208 75.9034 55.456 76.6714 54.896C77.4554 54.32 78.3674 54.032 79.4074 54.032C80.4954 54.032 81.3194 54.384 81.8794 55.088C82.4394 55.776 82.7034 56.648 82.6714 57.704C82.6714 58.648 82.2954 59.368 81.5434 59.864C80.8074 60.36 79.8634 60.608 78.7114 60.608C78.5354 60.608 78.2714 60.592 77.9194 60.56C77.3434 60.496 76.9354 60.408 76.6954 60.296C76.4554 60.184 76.3354 59.96 76.3354 59.624C76.3354 59.512 76.3674 59.432 76.4314 59.384C76.4954 59.32 76.6234 59.288 76.8154 59.288C77.0234 59.288 77.3914 59.336 77.9194 59.432C78.4314 59.528 78.8874 59.576 79.2874 59.576C80.7594 59.576 81.4954 58.936 81.4954 57.656C81.4954 56.888 81.3514 56.28 81.0634 55.832C80.7914 55.384 80.3034 55.16 79.5994 55.16C78.8314 55.16 78.1434 55.368 77.5354 55.784C76.9274 56.184 76.4554 56.712 76.1194 57.368C75.7994 58.024 75.6394 58.72 75.6394 59.456C75.6394 60.72 75.9914 61.76 76.6954 62.576C77.3994 63.376 78.4874 63.776 79.9594 63.776C80.1354 63.776 80.4314 63.76 80.8474 63.728C81.0234 63.712 81.2394 63.664 81.4954 63.584C81.7514 63.504 81.9354 63.448 82.0474 63.416C82.7354 63.176 83.2394 63.056 83.5594 63.056C83.7994 63.056 83.9834 63.12 84.1114 63.248C83.7114 63.856 83.1114 64.304 82.3114 64.592C81.5274 64.864 80.7514 65 79.9834 65ZM91.5332 65.024C90.2532 65.024 89.2452 64.776 88.5092 64.28C87.7732 63.768 87.2292 63 86.8772 61.976C86.5252 60.936 86.2932 59.544 86.1812 57.8L85.4852 53.744C85.4212 53.152 85.3332 52.576 85.2212 52.016C85.1092 51.456 85.0532 51.056 85.0532 50.816C85.0532 50.48 85.1492 50.232 85.3412 50.072C85.5332 49.896 85.8772 49.776 86.3732 49.712C86.4692 50.512 86.5332 51.112 86.5652 51.512C86.7412 53.064 86.8852 54.256 86.9972 55.088C87.1252 55.904 87.2852 56.76 87.4772 57.656C88.7092 57.112 89.8932 56.84 91.0292 56.84C92.0532 56.84 92.9652 57.056 93.7652 57.488C94.5652 57.904 95.1892 58.496 95.6372 59.264C96.0852 60.016 96.3092 60.864 96.3092 61.808C96.3092 62.912 95.8212 63.728 94.8452 64.256C93.8852 64.768 92.7812 65.024 91.5332 65.024ZM94.9652 61.856C94.9812 61.744 94.9892 61.584 94.9892 61.376C94.9892 60.24 94.5972 59.392 93.8132 58.832C93.0452 58.272 91.9492 57.992 90.5252 57.992C89.6452 57.992 88.9572 58.168 88.4612 58.52C87.9812 58.856 87.7412 59.32 87.7412 59.912C87.7412 61.272 88.1092 62.264 88.8452 62.888C89.5972 63.512 90.7412 63.824 92.2772 63.824C93.0132 63.824 93.6292 63.656 94.1252 63.32C94.6212 62.984 94.9012 62.496 94.9652 61.856ZM103.925 65C102.261 65 100.813 64.712 99.5809 64.136C98.3649 63.544 97.7569 62.512 97.7569 61.04C97.7569 60.512 97.9169 60 98.2369 59.504C98.5569 59.008 99.0289 58.608 99.6529 58.304C100.277 57.984 101.037 57.824 101.933 57.824C102.621 57.824 103.205 57.856 103.685 57.92C104.165 57.984 104.717 58.16 105.341 58.448C105.965 58.736 106.613 59.192 107.285 59.816C107.029 58.712 106.645 57.744 106.133 56.912C105.621 56.08 105.045 55.44 104.405 54.992C103.781 54.528 103.165 54.296 102.557 54.296C102.269 54.296 101.997 54.352 101.741 54.464C101.501 54.56 101.205 54.704 100.853 54.896C100.453 55.152 100.157 55.28 99.9649 55.28C99.8849 55.28 99.8129 55.256 99.7489 55.208C99.7009 55.144 99.6769 55.072 99.6769 54.992C99.6769 54.352 99.9569 53.856 100.517 53.504C101.093 53.152 101.789 52.992 102.605 53.024C103.725 53.088 104.749 53.568 105.677 54.464C106.605 55.344 107.333 56.44 107.861 57.752C108.405 59.064 108.677 60.352 108.677 61.616C108.677 61.824 108.661 62.12 108.629 62.504L107.861 62.456C107.253 61.224 106.469 60.352 105.509 59.84C104.565 59.312 103.613 59.048 102.653 59.048C101.421 59.048 100.541 59.232 100.013 59.6C99.4849 59.968 99.2209 60.504 99.2209 61.208C99.2209 61.944 99.5889 62.536 100.325 62.984C101.061 63.432 102.005 63.656 103.157 63.656C103.797 63.656 104.309 63.624 104.693 63.56C105.077 63.48 105.477 63.376 105.893 63.248C106.229 63.136 106.525 63.056 106.781 63.008C107.037 62.96 107.365 62.936 107.765 62.936C108.213 62.936 108.493 62.968 108.605 63.032C108.733 63.096 108.797 63.24 108.797 63.464C108.797 63.624 108.469 63.824 107.813 64.064C107.157 64.304 106.421 64.52 105.605 64.712C104.789 64.904 104.229 65 103.925 65ZM110.142 53.912C110.142 53.848 110.222 53.608 110.382 53.192C110.558 52.776 110.646 52.256 110.646 51.632C110.646 51.248 110.598 50.808 110.502 50.312C110.486 50.248 110.478 50.144 110.478 50C110.478 49.696 110.558 49.432 110.718 49.208C110.894 48.968 111.15 48.848 111.486 48.848C111.694 48.848 111.838 48.992 111.918 49.28C112.014 49.552 112.062 49.96 112.062 50.504C112.062 51.016 111.974 51.56 111.798 52.136C111.622 52.712 111.406 53.2 111.15 53.6C110.894 53.984 110.654 54.176 110.43 54.176C110.238 54.176 110.142 54.088 110.142 53.912ZM113.322 62.168C113.546 61.992 113.762 61.904 113.97 61.904C114.162 61.904 114.346 61.96 114.522 62.072C114.714 62.184 114.906 62.328 115.098 62.504C115.29 62.664 115.442 62.784 115.554 62.864C115.922 63.152 116.426 63.376 117.066 63.536C117.706 63.696 118.386 63.776 119.106 63.776C119.922 63.776 120.65 63.624 121.29 63.32C121.946 63 122.274 62.576 122.274 62.048C122.274 61.568 122.098 61.192 121.746 60.92C121.394 60.632 120.97 60.424 120.474 60.296C119.978 60.168 119.322 60.048 118.506 59.936C117.402 59.808 116.522 59.648 115.866 59.456C115.226 59.264 114.714 58.952 114.33 58.52C113.946 58.072 113.754 57.448 113.754 56.648C113.754 55.784 114.162 55.144 114.978 54.728C115.794 54.296 116.73 54.08 117.786 54.08C118.746 54.08 119.562 54.288 120.234 54.704C120.922 55.104 121.274 55.68 121.29 56.432C121.322 56.864 121.258 57.208 121.098 57.464C120.938 57.704 120.746 57.824 120.522 57.824C120.394 57.824 120.282 57.776 120.186 57.68C120.106 57.584 120.066 57.456 120.066 57.296C120.066 57.04 120.154 56.76 120.33 56.456C120.25 56.072 119.986 55.784 119.538 55.592C119.106 55.4 118.586 55.304 117.978 55.304C117.082 55.304 116.37 55.472 115.842 55.808C115.314 56.128 115.05 56.512 115.05 56.96C115.05 57.44 115.242 57.808 115.626 58.064C116.01 58.32 116.474 58.504 117.018 58.616C117.578 58.712 118.37 58.808 119.394 58.904C120.242 59.016 120.93 59.152 121.458 59.312C122.002 59.472 122.458 59.784 122.826 60.248C123.194 60.696 123.378 61.344 123.378 62.192C123.378 63.072 122.97 63.768 122.154 64.28C121.338 64.776 120.362 65.024 119.226 65.024C117.77 65.024 116.466 64.776 115.314 64.28C114.178 63.784 113.514 63.08 113.322 62.168ZM135.277 65C135.117 65.032 135.013 65.048 134.965 65.048C134.469 65.048 134.125 64.68 133.933 63.944C133.757 63.208 133.669 62.176 133.669 60.848C133.669 60.304 133.685 59.456 133.717 58.304C133.749 57.6 133.765 57.072 133.765 56.72C131.797 56.72 130.813 56.496 130.813 56.048C130.813 55.904 130.829 55.792 130.861 55.712C130.909 55.632 131.005 55.592 131.149 55.592L133.765 55.424C133.749 54.64 133.709 53.784 133.645 52.856C133.581 52.024 133.541 51.256 133.525 50.552C133.525 50.376 133.597 50.256 133.741 50.192C133.885 50.112 134.037 50.072 134.197 50.072C134.389 50.072 134.549 50.176 134.677 50.384C134.805 50.576 134.869 50.776 134.869 50.984L135.037 55.376L137.029 55.472C137.333 55.44 137.589 55.496 137.797 55.64C138.021 55.784 138.141 56.024 138.157 56.36C137.821 56.504 137.453 56.592 137.053 56.624C136.653 56.656 135.981 56.672 135.037 56.672C135.037 58.16 135.109 60.608 135.253 64.016C135.253 64.368 135.253 64.616 135.253 64.76C135.269 64.888 135.277 64.968 135.277 65ZM141.588 65C140.932 63.72 140.412 62.216 140.028 60.488C139.66 58.76 139.476 57.264 139.476 56C139.476 55.504 139.588 55.184 139.812 55.04C139.94 54.96 140.036 54.92 140.1 54.92C140.212 54.92 140.292 55.008 140.34 55.184C140.404 55.36 140.468 55.68 140.532 56.144L140.652 57.008C140.828 56.144 141.164 55.464 141.66 54.968C142.172 54.456 142.796 54.2 143.532 54.2C144.348 54.2 144.956 54.36 145.356 54.68C145.756 54.984 145.956 55.496 145.956 56.216C145.156 55.832 144.428 55.64 143.772 55.64C143.148 55.64 142.612 55.808 142.164 56.144C141.716 56.48 141.404 56.976 141.228 57.632C141.084 58.08 141.012 58.504 141.012 58.904C141.012 59.336 141.068 59.744 141.18 60.128C141.308 60.496 141.5 60.952 141.756 61.496C141.996 62.056 142.18 62.536 142.308 62.936C142.452 63.336 142.532 63.768 142.548 64.232C142.548 64.504 142.452 64.704 142.26 64.832C142.068 64.944 141.844 65 141.588 65ZM148.513 65.024C148.145 65.024 147.849 64.488 147.625 63.416C147.401 62.328 147.257 61.392 147.193 60.608C147.129 59.824 147.041 58.584 146.929 56.888C146.913 56.616 146.905 56.264 146.905 55.832C146.905 55.288 146.945 54.912 147.025 54.704C147.121 54.496 147.273 54.392 147.481 54.392C147.657 54.392 147.793 54.432 147.889 54.512C148.001 54.576 148.097 54.688 148.177 54.848L148.153 55.808C148.153 56.832 148.201 57.8 148.297 58.712C148.409 59.624 148.577 60.848 148.801 62.384C148.929 63.056 149.017 63.608 149.065 64.04C149.097 64.264 149.057 64.488 148.945 64.712C148.833 64.92 148.689 65.024 148.513 65.024ZM147.913 51.824C147.561 51.824 147.297 51.688 147.121 51.416C146.961 51.144 146.881 50.808 146.881 50.408C146.881 50.232 146.889 50.104 146.905 50.024C146.889 49.768 147.033 49.64 147.337 49.64C147.561 49.64 147.785 49.696 148.009 49.808C148.249 49.904 148.321 49.976 148.225 50.024C148.385 50.44 148.465 50.768 148.465 51.008C148.465 51.216 148.417 51.384 148.321 51.512C148.225 51.624 148.089 51.728 147.913 51.824ZM154.05 73.544C153.73 73.544 153.346 72.688 152.898 70.976C152.466 69.264 152.074 67.36 151.722 65.264C151.386 63.184 151.218 61.872 151.218 61.328C151.218 59.712 151.762 58.536 152.85 57.8C153.938 57.048 155.338 56.672 157.05 56.672C157.962 56.672 158.826 56.864 159.642 57.248C160.458 57.616 161.114 58.152 161.61 58.856C162.106 59.544 162.354 60.344 162.354 61.256C162.354 62.392 161.954 63.192 161.154 63.656C160.37 64.12 159.378 64.352 158.178 64.352C156.93 64.352 155.866 64.144 154.986 63.728C154.122 63.296 153.69 62.712 153.69 61.976L153.714 61.736C153.826 61.608 153.946 61.544 154.074 61.544C154.186 61.544 154.306 61.592 154.434 61.688C154.578 61.768 154.73 61.864 154.89 61.976C155.386 62.344 155.874 62.64 156.354 62.864C156.85 63.088 157.466 63.2 158.202 63.2C159.21 63.2 159.922 63.024 160.338 62.672C160.77 62.304 160.986 61.728 160.986 60.944C160.986 60.368 160.794 59.856 160.41 59.408C160.026 58.96 159.53 58.616 158.922 58.376C158.314 58.136 157.69 58.016 157.05 58.016C155.562 58.016 154.442 58.336 153.69 58.976C152.938 59.6 152.602 60.648 152.682 62.12C152.826 64.616 153.05 66.712 153.354 68.408C153.674 70.104 154.226 71.544 155.01 72.728L155.034 72.776C155.034 72.808 154.994 72.84 154.914 72.872C154.85 72.92 154.802 72.96 154.77 72.992C154.578 73.296 154.338 73.48 154.05 73.544ZM164.393 62.168C164.617 61.992 164.833 61.904 165.041 61.904C165.233 61.904 165.417 61.96 165.593 62.072C165.785 62.184 165.977 62.328 166.169 62.504C166.361 62.664 166.513 62.784 166.625 62.864C166.993 63.152 167.497 63.376 168.137 63.536C168.777 63.696 169.457 63.776 170.177 63.776C170.993 63.776 171.721 63.624 172.361 63.32C173.017 63 173.345 62.576 173.345 62.048C173.345 61.568 173.169 61.192 172.817 60.92C172.465 60.632 172.041 60.424 171.545 60.296C171.049 60.168 170.393 60.048 169.577 59.936C168.473 59.808 167.593 59.648 166.937 59.456C166.297 59.264 165.785 58.952 165.401 58.52C165.017 58.072 164.825 57.448 164.825 56.648C164.825 55.784 165.233 55.144 166.049 54.728C166.865 54.296 167.801 54.08 168.857 54.08C169.817 54.08 170.633 54.288 171.305 54.704C171.993 55.104 172.345 55.68 172.361 56.432C172.393 56.864 172.329 57.208 172.169 57.464C172.009 57.704 171.817 57.824 171.593 57.824C171.465 57.824 171.353 57.776 171.257 57.68C171.177 57.584 171.137 57.456 171.137 57.296C171.137 57.04 171.225 56.76 171.401 56.456C171.321 56.072 171.057 55.784 170.609 55.592C170.177 55.4 169.657 55.304 169.049 55.304C168.153 55.304 167.441 55.472 166.913 55.808C166.385 56.128 166.121 56.512 166.121 56.96C166.121 57.44 166.313 57.808 166.697 58.064C167.081 58.32 167.545 58.504 168.089 58.616C168.649 58.712 169.441 58.808 170.465 58.904C171.313 59.016 172.001 59.152 172.529 59.312C173.073 59.472 173.529 59.784 173.897 60.248C174.265 60.696 174.449 61.344 174.449 62.192C174.449 63.072 174.041 63.768 173.225 64.28C172.409 64.776 171.433 65.024 170.297 65.024C168.841 65.024 167.537 64.776 166.385 64.28C165.249 63.784 164.585 63.08 164.393 62.168Z" fill="#051EFA"/>
<defs>
<linearGradient id="paint0_linear" x1="124" y1="59" x2="1.0722e-05" y2="59" gradientUnits="userSpaceOnUse">
<stop stop-color="#9DFA05"/>
<stop offset="1" stop-color="#DD0AFF" stop-opacity="0"/>
</linearGradient>
<linearGradient id="paint1_linear" x1="62" y1="5" x2="62" y2="119" gradientUnits="userSpaceOnUse">
<stop stop-color="#45B9DD"/>
<stop offset="1" stop-color="#CAB7BA" stop-opacity="0"/>
</linearGradient>
</defs>
</svg>
